<svg xmlns="http://www.w3.org/2000/svg" xmlns:xlink="http://www.w3.org/1999/xlink" width="160px" height="50px" viewBox="0 0 160 50" version="1.1">
    <g id="Page-1" stroke="none" stroke-width="1" fill="none" fill-rule="evenodd">
        <g id="home_v3" transform="translate(-880.000000, -6013.000000)">
            <g id="09-footer" transform="translate(0.000000, 5589.000000)">
                <g id="QMetry-Test-Management-Logo-WHITE" transform="translate(880.000000, 424.000000)">
                    <polygon id="Path" fill="#003FB3" points="141.744578 25.6946336 141.744578 37.3941711 138.813808 37.3941711 138.813808 25.7309333"/>
                    <path d="M0.163335278,24.7234863 L0.163335278,24.6506239 C0.163335278,17.6237468 5.47636449,11.4709548 13.2809847,11.4709548 C21.0856049,11.4709548 26.3245111,17.5511474 26.3245111,24.5777616 L26.3245111,24.6506239 C26.3245111,31.6775011 21.0117466,37.8305561 13.2071264,37.8305561 C5.40250623,37.8305561 0.163335278,31.7501004 0.163335278,24.7234863 Z M23.3204127,24.7234863 L23.3204127,24.6506239 C23.3204127,18.8616177 19.070254,14.1289841 13.2079206,14.1289841 C7.34558717,14.1289841 3.16796316,18.7890184 3.16796316,24.5780246 L3.16796316,24.650887 C3.16796316,30.4396302 7.41865125,35.1725268 13.2804552,35.1725268 C19.1422592,35.1725268 23.3204127,30.5122295 23.3204127,24.7234863 Z" id="Shape" fill="#003FB3" fill-rule="nonzero"/>
                    <polygon id="Path" fill="#003FB3" points="61.3171751 11.9078659 79.8577145 11.9078659 79.8577145 14.5293325 64.2124716 14.5293325 64.2124716 23.2307286 78.2092724 23.2307286 78.2092724 25.8524582 64.2119421 25.8524582 64.2119421 34.7721784 80.0409042 34.7721784 80.0409042 37.393382 61.3171751 37.393382"/>
                    <polygon id="Path" fill="#003FB3" points="91.1799995 14.5656321 82.5692919 14.5656321 82.5692919 11.9089181 102.722006 11.9089181 102.722006 14.5656321 94.1110338 14.5656321 94.1110338 37.393382 91.1799995 37.393382"/>
                    <path d="M106.679114,11.9078659 L117.707555,11.9078659 C120.857781,11.9078659 123.386963,12.8548135 124.999138,14.4564701 C126.304107,15.8035534 127.016072,17.6111824 126.977957,19.4805531 L126.977957,19.5534155 C126.977957,23.7768017 124.046658,26.2525436 120.015691,26.9809041 L127.89364,37.393382 L124.340238,37.393382 L116.901467,27.4906776 L109.573881,27.4906776 L109.573881,37.393382 L106.679114,37.393382 L106.679114,11.9078659 Z M117.451566,24.9055107 C121.299078,24.9055107 124.047187,22.9395423 124.047187,19.6628406 L124.047187,19.5899782 C124.047187,16.4597903 121.62866,14.5658952 117.488098,14.5658952 L109.572822,14.5658952 L109.572822,24.9055107 L117.451566,24.9055107 Z" id="Shape" fill="#003FB3" fill-rule="nonzero"/>
                    <polygon id="Path" fill="#0EDE00" points="138.813808 27.3083902 128.150953 11.9078659 131.668618 11.9078659 140.315063 24.6506239 157.283931 0.0365626985 159.646601 1.49012724 140.337565 29.3230212"/>
                    <polygon id="Path" fill="#003FB3" points="32.0457461 47.7527255 29.8824141 49.2257551 18.5550993 34.2232119 20.7181667 32.7504453"/>
                    <polygon id="Path" fill="#003FB3" points="52.5966067 11.9078659 43.2528758 25.8158955 33.9094096 11.9078659 30.9781105 11.9078659 30.9781105 37.8210866 33.7995488 41.9119002 33.7995488 16.7867503 43.1430149 30.4033305 43.2896725 30.4033305 52.6331387 16.7501876 52.6331387 37.393645 55.527641 37.393645 55.527641 11.9078659"/>
                </g>
            </g>
        </g>
    </g>
</svg>